<svg clip-rule="evenodd" fill-rule="evenodd" height="16" stroke-linejoin="round" stroke-miterlimit="1.41421" width="24" xmlns="http://www.w3.org/2000/svg"><path d="m0 0h24v16h-24z" fill="#f0f0f0"/><g fill-rule="nonzero"><path d="m13.5 0h-3v6.5h-10.5v3h10.5v6.5h3v-6.5h10.5v-3h-10.5z" fill="#d80027"/><path d="m18.459 10.783 5.541 3.078v-3.078z" fill="#0052b4"/><path d="m14.609 10.783 9.391 5.217v-1.475l-6.736-3.742z" fill="#0052b4"/><path d="m21.498 16-6.889-3.828v3.828z" fill="#0052b4"/><path d="m14.609 10.783 9.391 5.217v-1.475l-6.736-3.742z" fill="#f0f0f0"/><path d="m14.609 10.783 9.391 5.217v-1.475l-6.736-3.742z" fill="#d80027"/><path d="m4.235 10.782-4.235 2.353v-2.353z" fill="#0052b4"/><path d="m9.391 11.446v4.554h-8.196z" fill="#0052b4"/><path d="m6.736 10.783-6.736 3.742v1.475l9.391-5.217z" fill="#d80027"/><path d="m5.541 5.217-5.541-3.078v3.078z" fill="#0052b4"/><path d="m9.391 5.217-9.391-5.217v1.475l6.736 3.742z" fill="#0052b4"/><path d="m2.502 0 6.889 3.828v-3.828z" fill="#0052b4"/><path d="m9.391 5.217-9.391-5.217v1.475l6.736 3.742z" fill="#f0f0f0"/><path d="m9.391 5.217-9.391-5.217v1.475l6.736 3.742z" fill="#d80027"/><path d="m19.765 5.217 4.235-2.352v2.352z" fill="#0052b4"/><path d="m14.609 4.554v-4.554h8.196z" fill="#0052b4"/><path d="m17.264 5.217 6.736-3.742v-1.475l-9.391 5.217z" fill="#d80027"/></g></svg>