<svg clip-rule="evenodd" fill-rule="evenodd" height="180" stroke-linejoin="round" stroke-miterlimit="1.41421" width="631" xmlns="http://www.w3.org/2000/svg"><g fill-rule="nonzero"><path d="m93.004 106.598c0-18 8-28 22-28 10 0 16 4 18 10l2 2h24l2-2c-4-24-24-34-46-34-30 0-50 20-50 52s20 52 50 52c22 0 42-10 46-34l-2-2h-24l-2 2c-2 6-8 10-18 10-14 0-22-10-22-28z"/><path d="m207.004 154.598v-135.999l-2-2h-24l-2 2v135.999l2 2h24z"/><path d="m325.004 106.598c0-32-20-52-50-52s-50 20-50 52 20 52 50 52 50-20 50-52zm-28 0c0 18-8 28-22 28s-22-10-22-28 8-28 22-28 22 10 22 28z"/><path d="m341.004 58.598v60c0 24 14 40 38 40 18 0 24-10 24-10h2l2 6 2 2h22l2-2v-96l-2-2h-24l-2 2v52c0 14-6 24-20 24-12 0-16-8-16-18v-58l-2-2h-24z"/><path d="m451.004 106.598c0 32 20 52 44 52 18 0 26-10 26-10h2l2 6 2 2h22l2-2v-135.999l-2-2h-24l-2 2v45.999h-2s-8-10-26-10c-24 0-44 20-44 52zm28 0c0-16 6-28 22-28s22 12 22 28-6 28-22 28-22-12-22-28z"/><path d="m50.004 177.998v-20l-2-2h-18l-2-2v-127.999l2-2h18l2-2v-20l-2-2h-46l-2 2v175.999l2 2h46z"/><path d="m583.004 179.998h46l2-2v-175.999l-2-2h-46l-2 2v20l2 2h18l2 2v127.999l-2 2h-18l-2 2v20z"/></g></svg>