<svg clip-rule="evenodd" fill-rule="evenodd" stroke-linejoin="round" stroke-miterlimit="2" viewBox="0 0 64 64" xmlns="http://www.w3.org/2000/svg" xmlns:xlink="http://www.w3.org/1999/xlink"><clipPath id="a"><path clip-rule="evenodd" d="m114 0h64v64h-64z"/></clipPath><g transform="translate(-114)"><path d="m114 0h64v64h-64z" fill="none"/><g clip-path="url(#a)"><path d="m60.105 4.898c-4.526-2.077-9.378-3.606-14.452-4.483-.093-.016-.185.026-.233.11-.624 1.11-1.315 2.558-1.799 3.697-5.457-.817-10.887-.817-16.232 0-.484-1.164-1.2-2.587-1.827-3.697-.048-.081-.14-.124-.233-.11-5.071.874-9.923 2.404-14.451 4.483-.04.017-.073.045-.095.082-9.205 13.751-11.727 27.164-10.49 40.411.006.065.042.127.093.167 6.073 4.459 11.955 7.167 17.729 8.962.092.028.19-.006.249-.082 1.366-1.865 2.583-3.832 3.627-5.9.061-.121.003-.264-.123-.312-1.931-.733-3.77-1.626-5.539-2.64-.14-.082-.151-.282-.022-.378.372-.279.744-.569 1.1-.862.064-.053.154-.065.229-.031 11.62 5.305 24.199 5.305 35.682 0 .076-.036.165-.025.232.028.356.293.728.586 1.103.865.129.096.12.296-.02.378-1.768 1.034-3.607 1.907-5.541 2.637-.126.048-.182.194-.12.315 1.066 2.065 2.283 4.032 3.624 5.897.056.079.157.113.249.085 5.801-1.795 11.684-4.503 17.757-8.962.053-.04.087-.099.092-.164 1.481-15.315-2.479-28.618-10.497-40.412-.02-.039-.053-.067-.092-.084zm-36.379 32.427c-3.498 0-6.381-3.211-6.381-7.156 0-3.944 2.827-7.156 6.381-7.156 3.582 0 6.437 3.24 6.381 7.156 0 3.945-2.827 7.156-6.381 7.156zm23.592 0c-3.498 0-6.381-3.211-6.381-7.156 0-3.944 2.827-7.156 6.381-7.156 3.582 0 6.437 3.24 6.381 7.156 0 3.945-2.799 7.156-6.381 7.156z" fill-rule="nonzero" transform="matrix(.901408 0 0 .901408 114 7.23781)"/></g></g></svg>